PathFileType	3	(X/Y/Z)	D:\minhoCalibration\240510\subject3_KPNP\preferred\preferred08.trc
DataRate	CameraRate	NumFrames	NumMarkers	Units	OrigDataRate	OrigDataStartFrame	OrigNumFrames
200.0	200.0	27	10	mm	200.0	170	116	
Frame#	Time	Left_Ankle_Outer1			Left_Ankle_Inner1			Left_Knee_Outer1			Left_Knee_Inner1			Left_Wrist1			Right_Wrist1			Right_Knee_Inner1			Right_Knee_Outer1			Right_Ankle_Inner1			Right_Ankle_Outer1			
		X1	Y1	Z1	X2	Y2	Z2	X3	Y3	Z3	X4	Y4	Z4	X5	Y5	Z5	X6	Y6	Z6	X7	Y7	Z7	X8	Y8	Z8	X9	Y9	Z9	X10	Y10	Z10	
170	0.84	-300.09454	89.981453	-526.42175	-354.51068	102.86312	-529.99353	-216.30438	498.66257	-367.74918	-320.78476	501.38943	-358.51569	-165.98949	874.89923	-524.22766	-521.61072	920.23938	-575.13556	-550.16467	447.12744	-554.48431	-638.84717	519.8244	-600.7724	-447.48892	266.81512	-926.07104	-539.61072	289.01718	-965.14996
171	0.845	-299.21585	91.250519	-526.3855	-354.03146	104.14062	-529.44861	-213.03848	499.76831	-369.78461	-317.10458	502.59955	-358.07498	-161.97466	877.43884	-524.02814	-518.90851	926.21521	-563.52557	-546.7356	451.74271	-535.59308	-639.94543	524.24896	-578.78027	-454.6026	282.78577	-912.73969	-549.45734	301.86569	-948.43719
172	0.85	-298.79715	92.242371	-526.09497	-353.63278	105.50375	-528.88977	-209.715	500.67456	-372.07034	-313.39127	504.35345	-357.67313	-157.67824	880.54559	-525.69409	-515.66083	931.77716	-552.06177	-542.95331	457.35074	-517.01465	-640.96033	530.21594	-552.90613	-462.10388	299.00125	-897.79938	-558.34583	316.12839	-932.07166
173	0.855	-298.42694	93.484787	-525.69989	-353.12347	107.0792	-528.23181	-206.25261	501.69699	-374.6409	-309.74255	505.92429	-357.43967	-153.62576	883.17371	-527.23059	-512.05298	938.02216	-540.46631	-538.77197	463.51733	-498.181	-640.78131	536.73608	-528.3446	-469.6889	315.30725	-881.6723	-567.42578	330.92758	-912.42841
174	0.86	-297.96036	94.983261	-525.28412	-352.64148	108.87105	-527.38806	-203.23933	502.65985	-377.0654	-306.02765	507.57187	-357.25418	-149.33179	885.44006	-529.53589	-507.6803	944.15179	-529.5271	-534.50433	470.15176	-479.2178	-640.05408	543.99249	-502.06827	-477.7731	331.65515	-864.53741	-575.92181	347.2457	-893.01746
175	0.865	-297.48004	96.589478	-524.73175	-352.2764	110.79447	-526.55573	-200.12582	503.78229	-379.56659	-302.29327	509.62479	-357.29361	-144.97743	887.88861	-532.36572	-502.57074	950.67883	-518.89844	-530.15527	477.53455	-459.85281	-638.74744	551.94629	-475.83066	-485.8364	347.88724	-846.44794	-584.18903	364.38138	-873.48724
176	0.87	-296.95721	98.480125	-524.21521	-352.02448	112.88975	-525.39893	-197.14838	505.17584	-381.81924	-298.7439	511.71231	-357.56778	-140.80211	890.22498	-535.63434	-495.89529	957.46228	-509.1105	-526.06152	485.60736	-440.00891	-636.60541	561.07568	-449.18518	-494.23544	364.1586	-827.40015	-592.73145	381.95071	-852.65112
177	0.875	-296.93509	100.21983	-523.17566	-351.89648	114.78389	-524.06226	-194.1763	506.70724	-383.88849	-295.11279	513.77264	-358.06989	-136.43822	892.58533	-539.72443	-490.55496	963.71832	-499.61331	-522.16479	494.51096	-419.59717	-633.84741	571.37585	-422.60788	-501.80209	380.27649	-807.83447	-601.36011	400.29391	-830.45459
178	0.88	-296.29788	102.45612	-522.60864	-351.38492	117.12759	-523.00116	-191.07715	508.57843	-385.81583	-291.8089	515.38745	-358.86295	-132.48575	894.72327	-544.21057	-483.40118	971.16748	-491.08112	-518.11682	504.05234	-397.59836	-630.38812	582.94147	-396.51465	-511.69266	395.99716	-787.10864	-610.02673	418.99255	-807.01807
179	0.885	-296.04147	104.42344	-521.73779	-351.26395	119.39674	-521.4649	-188.64655	510.21426	-387.78195	-287.86545	517.99603	-359.32394	-128.34854	896.87476	-549.3252	-476.70636	978.229	-482.88409	-514.31268	515.08044	-375.36218	-625.53088	595.47717	-372.19962	-520.58276	412.05252	-766.48749	-619.44342	437.78897	-782.52539
180	0.89	-296.12085	106.26787	-520.79474	-351.23312	121.81985	-519.85004	-185.26134	512.36902	-389.36023	-283.90646	520.48132	-360.19217	-124.09505	899.11462	-555.07715	-469.53589	985.50031	-475.63306	-510.11984	527.89215	-353.20175	-620.94061	609.90759	-346.8746	-530.77454	428.01358	-744.57147	-628.95483	456.72668	-756.94684
181	0.895	-295.99435	108.37151	-519.95917	-351.15103	124.20617	-518.20166	-182.09416	514.55261	-391.50208	-280.04468	523.19031	-360.83414	-120.38425	901.15527	-561.08209	-462.11877	992.91974	-469.33026	-506.39224	540.84845	-330.91736	-615.23395	625.27673	-321.44016	-541.44025	443.76862	-722.12231	-638.81543	476.12628	-729.7453
182	0.9	-296.02081	110.22404	-519.10004	-351.15872	126.50579	-516.36469	-178.66121	516.83295	-393.595	-275.80075	525.95142	-361.52927	-116.92538	903.13672	-567.36823	-454.48535	999.90991	-463.90692	-500.96417	556.1665	-306.47711	-608.18213	641.86646	-298.22058	-552.04352	459.6004	-699.3692	-648.8736	494.58371	-702.92102
183	0.905	-296.18945	112.03104	-518.2439	-351.61151	128.95238	-513.98029	-174.86266	519.17487	-396.11682	-271.2652	529.35437	-361.9509	-113.9477	905.0379	-574.00153	-447.86197	1007.9501	-458.81873	-495.00317	571.83209	-283.05807	-601.18414	659.38214	-274.63177	-563.4848	475.4791	-675.66394	-659.08716	513.20068	-674.79749
184	0.91	-296.21277	113.65426	-517.45135	-351.31168	131.00801	-512.49707	-170.95152	521.44873	-399.0961	-266.5235	531.93359	-362.68985	-111.31003	906.77942	-580.79962	-439.50278	1015.6401	-454.12769	-488.11658	588.39203	-259.74435	-592.70428	677.93469	-251.97192	-575.48834	491.2916	-650.92712	-669.68781	532.1593	-645.57275
185	0.915	-296.20157	115.44536	-516.77881	-351.42578	133.11679	-510.62317	-166.94571	523.48499	-402.46054	-261.23746	534.76172	-363.28247	-108.7844	908.61774	-587.8382	-432.42261	1023.347	-450.22278	-480.4584	606.08234	-237.81851	-582.76556	697.41681	-230.08664	-587.1214	507.58087	-625.42657	-679.8667	550.802	-615.61035
186	0.92	-296.3432	116.95073	-516.09247	-351.42834	134.85796	-508.84909	-163.01466	525.26819	-406.39087	-255.58224	537.21497	-363.92133	-107.04767	910.19971	-594.65961	-425.3927	1031.0781	-447.00778	-471.5863	624.35022	-216.30669	-572.10022	717.59869	-208.72429	-599.776	523.22601	-598.80536	-690.30371	569.34332	-584.71155
187	0.925	-296.31348	118.33941	-515.49292	-351.31885	136.78755	-506.88528	-159.63773	526.60211	-410.4902	-250.51743	539.68433	-363.91037	-105.69244	911.65692	-601.35272	-418.55106	1038.0936	-444.84277	-461.79227	643.3053	-196.40878	-559.49091	738.73163	-187.82506	-611.5918	539.00519	-571.23792	-700.35327	587.88727	-553.0473
188	0.93	-296.28339	119.72176	-514.92706	-351.34244	138.56509	-505.12238	-156.12967	527.78522	-414.94745	-244.51807	541.29669	-365.1098	-104.89026	913.00806	-607.65222	-411.62689	1045.9415	-442.33893	-451.14261	662.49866	-177.83496	-546.8103	760.36755	-167.6955	-623.80029	554.9101	-542.75995	-709.93561	606.48743	-520.14606
189	0.935	-296.40765	120.82092	-514.32764	-351.2691	140.05818	-503.27295	-152.94611	528.73816	-419.53067	-238.98041	542.52063	-365.76398	-104.00187	914.39819	-614.13574	-405.30942	1053.0105	-440.74026	-439.49323	681.96478	-160.46686	-530.89526	782.61475	-148.68221	-635.4632	570.74762	-513.07428	-718.46985	625.625	-487.04956
190	0.94	-297.49945	121.63957	-513.24982	-351.33762	141.56787	-501.51086	-150.18977	529.29376	-424.02005	-232.14009	543.65564	-364.92465	-103.63669	915.52582	-620.19269	-398.87982	1060.3542	-439.35898	-427.21844	701.57227	-144.29324	-514.32294	805.15619	-131.47717	-647.10052	586.28674	-481.9046	-727.117	644.39893	-451.00507
191	0.945	-297.30954	122.90469	-512.91699	-351.51947	143.05167	-499.85803	-147.91524	529.71893	-428.13867	-228.14397	543.57819	-366.6156	-103.60844	916.55896	-626.08002	-392.75073	1067.2826	-438.46945	-414.46225	721.25757	-129.38049	-496.80002	828.14514	-115.43022	-658.46228	602.11786	-449.21298	-734.55383	662.81866	-416.62711
192	0.95	-297.64221	124.08447	-512.29669	-351.6246	144.27362	-498.10468	-145.77826	530.15497	-431.74881	-223.60405	544.56592	-366.82565	-103.88989	917.45087	-631.76886	-386.00613	1073.8788	-437.3432	-401.18726	741.00665	-115.58076	-478.4613	850.70526	-101.4267	-668.84503	617.96991	-415.1618	-741.20129	682.17743	-378.97623
193	0.955	-298.63251	124.76767	-511.38895	-351.95758	145.43726	-496.52631	-143.80983	530.61359	-434.74469	-219.52711	545.12964	-367.41431	-104.49412	918.03394	-637.32019	-381.1142	1080.2136	-438.06549	-387.63647	760.88391	-103.1023	-459.65833	873.22974	-89.760094	-678.48969	633.9928	-378.90976	-747.35297	701.3205	-339.81744
194	0.96	-298.33173	126.45773	-511.38651	-352.57144	146.6454	-494.97644	-142.23073	530.95538	-437.15396	-216.28702	545.83356	-367.7995	-105.64207	918.26135	-642.60284	-376.76221	1085.4303	-438.49234	-373.73242	780.77332	-91.982666	-439.80814	895.43073	-79.643379	-687.27386	650.46741	-341.86844	-751.14679	721.33307	-301.31213
195	0.965	-299.25662	127.24397	-510.54794	-353.06918	147.5667	-493.42389	-140.91502	530.84521	-439.03748	-214.30588	546.00574	-369.41806	-106.64167	918.37958	-648.1665	-371.65991	1090.9771	-439.26965	-359.7019	800.6123	-82.312515	-419.21121	916.77789	-72.192902	-695.32495	667.66449	-302.29501	-753.7785	741.38562	-260.6745
196	0.97	-300.54208	127.92445	-509.86743	-353.62222	148.39227	-491.91296	-139.92268	531.06787	-439.99609	-212.35428	547.19592	-368.44321	-108.0565	918.13239	-653.46771	-367.10068	1096.2941	-440.24734	-346.00848	820.03412	-73.833458	-398.36926	936.68988	-67.066681	-701.07025	685.4892	-262.02054	-754.56866	762.21039	-218.91191
